<svg width="19" height="20" viewBox="0 0 19 20" fill="none" xmlns="http://www.w3.org/2000/svg">
<path d="M7.33203 16C7.59725 16 7.8516 15.8946 8.03914 15.7071C8.22667 15.5196 8.33203 15.2652 8.33203 15V9C8.33203 8.73478 8.22667 8.48043 8.03914 8.29289C7.8516 8.10536 7.59725 8 7.33203 8C7.06681 8 6.81246 8.10536 6.62492 8.29289C6.43739 8.48043 6.33203 8.73478 6.33203 9V15C6.33203 15.2652 6.43739 15.5196 6.62492 15.7071C6.81246 15.8946 7.06681 16 7.33203 16ZM17.332 4H13.332V3C13.332 2.20435 13.016 1.44129 12.4534 0.87868C11.8907 0.316071 11.1277 0 10.332 0H8.33203C7.53638 0 6.77332 0.316071 6.21071 0.87868C5.6481 1.44129 5.33203 2.20435 5.33203 3V4H1.33203C1.06681 4 0.812461 4.10536 0.624924 4.29289C0.437388 4.48043 0.332031 4.73478 0.332031 5C0.332031 5.26522 0.437388 5.51957 0.624924 5.70711C0.812461 5.89464 1.06681 6 1.33203 6H2.33203V17C2.33203 17.7956 2.6481 18.5587 3.21071 19.1213C3.77332 19.6839 4.53638 20 5.33203 20H13.332C14.1277 20 14.8907 19.6839 15.4534 19.1213C16.016 18.5587 16.332 17.7956 16.332 17V6H17.332C17.5972 6 17.8516 5.89464 18.0391 5.70711C18.2267 5.51957 18.332 5.26522 18.332 5C18.332 4.73478 18.2267 4.48043 18.0391 4.29289C17.8516 4.10536 17.5972 4 17.332 4ZM7.33203 3C7.33203 2.73478 7.43739 2.48043 7.62492 2.29289C7.81246 2.10536 8.06681 2 8.33203 2H10.332C10.5972 2 10.8516 2.10536 11.0391 2.29289C11.2267 2.48043 11.332 2.73478 11.332 3V4H7.33203V3ZM14.332 17C14.332 17.2652 14.2267 17.5196 14.0391 17.7071C13.8516 17.8946 13.5972 18 13.332 18H5.33203C5.06681 18 4.81246 17.8946 4.62492 17.7071C4.43739 17.5196 4.33203 17.2652 4.33203 17V6H14.332V17ZM11.332 16C11.5972 16 11.8516 15.8946 12.0391 15.7071C12.2267 15.5196 12.332 15.2652 12.332 15V9C12.332 8.73478 12.2267 8.48043 12.0391 8.29289C11.8516 8.10536 11.5972 8 11.332 8C11.0668 8 10.8125 8.10536 10.6249 8.29289C10.4374 8.48043 10.332 8.73478 10.332 9V15C10.332 15.2652 10.4374 15.5196 10.6249 15.7071C10.8125 15.8946 11.0668 16 11.332 16Z" fill="#999999"/>
</svg>
