<svg width="35" height="32" viewBox="0 0 35 32" fill="none" xmlns="http://www.w3.org/2000/svg">
<g clipPath="url(#clip0_4194_6173)">
<path d="M34.9535 29.4232C34.8023 30.0979 34.5504 30.718 34.0277 31.2005C33.3906 31.789 32.6245 31.9999 31.7772 31.9999C26.2096 31.9974 20.642 31.9991 15.0752 31.9991C12.5643 31.9991 10.0533 31.9999 7.54237 31.9982C6.83435 31.9974 6.16904 31.8522 5.59084 31.4132C4.78119 30.7983 4.40796 29.9707 4.40454 28.9671C4.40113 27.8654 4.40284 26.7628 4.40369 25.6611C4.40454 25.0017 4.62916 24.7643 5.28679 24.7096C6.80702 24.5841 7.87716 23.8223 8.47415 22.4191C8.53223 22.2833 8.52625 22.0826 8.47244 21.9425C7.70208 19.938 5.39696 19.0626 3.49241 20.0396C2.78268 20.4043 2.49999 20.3223 2.10626 19.6357C1.58785 18.7304 1.06943 17.8233 0.551016 16.9172C-0.418345 15.2227 0.0232053 13.5769 1.71766 12.5888C4.63002 10.8918 7.54408 9.19646 10.4581 7.50115C14.4697 5.16614 18.4838 2.83455 22.4927 0.49357C23.3801 -0.024846 24.2888 -0.170891 25.259 0.227102C25.9201 0.49784 26.3796 0.982093 26.7263 1.58933C27.2499 2.50574 27.7768 3.42044 28.3003 4.33685C28.642 4.93555 28.5574 5.26351 27.9664 5.64186C26.898 6.32681 26.295 7.30215 26.2455 8.56958C26.2284 9.00003 26.3693 9.43731 26.4487 9.87032C26.4914 10.1043 26.6315 10.1829 26.8826 10.1812C28.5532 10.1684 30.2228 10.1752 31.8934 10.1744C33.142 10.1744 34.0806 10.703 34.652 11.8227C34.7929 12.0994 34.8561 12.4163 34.9543 12.7152C34.9543 14.1013 34.9543 15.4883 34.9543 16.8745C34.7639 17.4031 34.3138 17.4296 33.8492 17.4757C31.9566 17.6628 30.5448 19.2829 30.5927 21.1909C30.6396 23.0536 32.1641 24.6225 34.0337 24.7045C34.4633 24.7233 34.7707 24.8719 34.9543 25.2622C34.9535 26.6501 34.9535 28.0362 34.9535 29.4232ZM13.1331 11.6519C13.0605 11.6365 13.0383 11.6288 13.0169 11.6288C11.1644 11.6271 9.31199 11.6246 7.45952 11.6263C6.4654 11.6271 5.86499 12.2181 5.85389 13.2114C5.84449 14.0527 5.85133 14.8931 5.85303 15.7343C5.85303 15.8334 5.86499 15.9325 5.87097 16.0307C5.9931 16.0606 6.09132 16.087 6.19124 16.1084C8.54931 16.62 10.207 18.6646 10.2147 21.0713C10.2216 23.4661 8.56041 25.5483 6.20918 26.0454C5.89232 26.1129 5.84193 26.2393 5.84706 26.5143C5.86157 27.2983 5.84962 28.0823 5.85218 28.8664C5.8556 29.9553 6.42611 30.5292 7.51162 30.5301C9.2616 30.5326 11.0116 30.5309 12.7615 30.5309C12.8726 30.5309 12.9836 30.5309 13.1322 30.5309C13.1322 30.1509 13.1254 29.8016 13.1356 29.4531C13.1399 29.296 13.1527 29.132 13.2048 28.9859C13.3081 28.6938 13.6429 28.5085 13.9401 28.5487C14.2843 28.5956 14.5482 28.8501 14.5653 29.2071C14.5858 29.635 14.5704 30.0638 14.5704 30.5104C14.7199 30.519 14.819 30.5301 14.9189 30.5301C20.5779 30.5309 26.2378 30.5326 31.8968 30.5292C32.9191 30.5284 33.4948 29.9459 33.5033 28.9176C33.5101 28.0883 33.4956 27.2582 33.5101 26.4289C33.5144 26.1846 33.4316 26.1154 33.1967 26.0582C31.0914 25.5509 29.713 24.2467 29.2646 22.1304C28.8196 20.0294 29.5362 18.2828 31.2417 16.965C31.8994 16.4568 32.6655 16.1801 33.5042 16.0324C33.5042 15.0946 33.5084 14.1756 33.5033 13.2575C33.4973 12.2011 32.9097 11.6246 31.843 11.6246C26.2173 11.6237 20.5924 11.6246 14.9667 11.6246C14.8472 11.6246 14.7267 11.6246 14.5747 11.6246C14.5747 12.2045 14.5901 12.7366 14.5704 13.2686C14.5525 13.7546 14.1759 14.0433 13.7207 13.9562C13.3577 13.887 13.1433 13.6205 13.1356 13.1918C13.1254 12.6836 13.1331 12.1737 13.1331 11.6519ZM24.9892 10.1556C24.7124 9.12387 24.7013 8.12034 25.0378 7.12195C25.3743 6.12611 25.9773 5.32244 26.7784 4.6836C26.7707 4.62894 26.7733 4.60332 26.7639 4.58538C26.3258 3.81587 25.8919 3.04551 25.4469 2.27941C24.9524 1.42791 24.1573 1.21098 23.3041 1.70719C18.5657 4.46154 13.83 7.22102 9.0942 9.97964C9.02502 10.0198 8.96438 10.0744 8.85592 10.1547C14.2655 10.1556 19.6094 10.1556 24.9892 10.1556ZM8.13167 19.1429C8.13423 19.1215 8.14534 19.0959 8.13765 19.0814C8.10349 19.0224 8.06676 18.9644 8.02491 18.9114C7.36985 18.077 6.5303 17.568 5.46017 17.4732C4.55828 17.3938 4.40369 17.2281 4.40369 16.3356C4.40369 15.145 4.40369 13.9544 4.40369 12.7101C3.69055 13.1251 3.00474 13.518 2.32576 13.9211C1.4828 14.4216 1.26757 15.2185 1.7467 16.0742C2.17971 16.8463 2.62297 17.6124 3.06452 18.3802C3.1021 18.446 3.15591 18.5032 3.19861 18.5587C5.1416 17.9233 5.91282 18.0155 8.13167 19.1429Z" fill="#444444"/>
<path d="M26.9373 14.5506C27.466 14.5438 27.8145 15.0579 27.6035 15.5413C27.554 15.6541 27.4848 15.7608 27.4105 15.8599C24.5793 19.6391 21.7464 23.4166 18.9134 27.1941C18.5692 27.6528 18.1362 27.7544 17.7801 27.4666C17.5187 27.2548 17.4299 26.9149 17.576 26.6108C17.6443 26.469 17.7382 26.3384 17.833 26.212C20.6241 22.4883 23.4169 18.7654 26.2088 15.0417C26.3967 14.7914 26.5872 14.5532 26.9373 14.5506Z" fill="#444444"/>
<path d="M27.6686 24.9395C27.6575 25.5912 27.438 26.3948 26.8086 27.0456C26.0912 27.7878 24.9484 27.8032 24.2174 27.0815C23.0874 25.9678 23.0148 23.6986 24.0705 22.5165C24.9706 21.5087 26.3611 21.6138 27.1058 22.7446C27.4995 23.3424 27.6703 24.0026 27.6686 24.9395ZM24.6803 24.7328C24.834 25.147 24.9348 25.5561 25.1321 25.9114C25.3268 26.2616 25.6172 26.2411 25.8691 25.9285C26.3389 25.3435 26.3431 24.117 25.8777 23.5209C25.6206 23.1912 25.3217 23.1742 25.1201 23.544C24.9245 23.9001 24.8306 24.3109 24.6803 24.7328Z" fill="#444444"/>
<path d="M17.4961 17.4118C17.5268 16.5808 17.731 15.7831 18.3467 15.1366C19.0667 14.3807 20.1872 14.3483 20.9388 15.0648C22.0901 16.1614 22.1704 18.4725 21.0985 19.6528C20.183 20.6606 18.8105 20.5505 18.0632 19.4129C17.6703 18.8133 17.514 18.1497 17.4961 17.4118ZM20.4896 17.5288C20.4614 17.5177 20.4332 17.5066 20.4059 17.4955C20.4221 17.0223 20.2658 16.4877 20.031 16.2135C19.7833 15.9249 19.5757 15.924 19.3281 16.2118C18.8336 16.7875 18.8318 18.0942 19.3246 18.6724C19.5663 18.9559 19.8345 18.9833 20.019 18.6681C20.224 18.3171 20.3367 17.9114 20.4896 17.5288Z" fill="#444444"/>
<path d="M14.5708 18.3588C14.5699 18.6193 14.5861 18.8815 14.5665 19.1403C14.5375 19.5169 14.2317 19.7954 13.8713 19.803C13.528 19.8099 13.1846 19.5588 13.1616 19.1975C13.1257 18.6338 13.1248 18.0642 13.165 17.5005C13.1906 17.135 13.5314 16.8967 13.8807 16.9086C14.2514 16.9223 14.5392 17.1896 14.5674 17.5765C14.5861 17.8361 14.5708 18.0975 14.5708 18.3588Z" fill="#444444"/>
<path d="M14.5686 24.1956C14.5686 24.4561 14.5857 24.7183 14.5643 24.9771C14.5353 25.3349 14.2671 25.5834 13.9221 25.6099C13.5565 25.6381 13.2047 25.428 13.1773 25.0642C13.1329 24.4689 13.1329 23.8642 13.1816 23.2698C13.2115 22.9059 13.5642 22.7044 13.934 22.7377C14.2774 22.7684 14.5267 23.0204 14.5694 23.38C14.5737 23.4141 14.5788 23.4474 14.5788 23.4816C14.5797 23.7199 14.5788 23.9582 14.5788 24.1964C14.5754 24.1956 14.572 24.1956 14.5686 24.1956Z" fill="#444444"/>
</g>
<defs>
<clipPath id="clip0_4194_6173">
<rect width="34.9089" height="32" fill="white" transform="translate(0.0449219)"/>
</clipPath>
</defs>
</svg>
